# xmcd
# 
# Track frame offsets:
#     150
#     15780
#     30293
#     44020
#     54762
#     71629
#     86557
#     97638
#     113365
#     127664
#     140860
#     154278
#     168694
#     180927
#     195737
#     210818
# 
# Disc length: 3047
# 
# Revision: 4
# Processed by: cddbd v1.5.2PL0 Copyright (c) Steve Scherf et al.
# Submitted via: BonkEnc v1.0.8
# 
DISCID=ba0be510
DTITLE=鄧麗君 - 鄧麗君紀念專輯２
DYEAR=0
DGENRE=Ballad
TTITLE0=千言萬語
TTITLE1=海韻
TTITLE2=詩意
TTITLE3=愛你一萬倍
TTITLE4=在水一方
TTITLE5=你可知道我愛誰
TTITLE6=水漣漪
TTITLE7=風從哪裡來
TTITLE8=舊夢何處尋
TTITLE9=世界多美麗
TTITLE10=不要忘記我
TTITLE11=惜別
TTITLE12=奈何
TTITLE13=原鄉情濃
TTITLE14=四個願望
TTITLE15=誰能禁止我的愛
EXTD=弘揚唱片發行
EXTT0=
EXTT1=
EXTT2=
EXTT3=
EXTT4=
EXTT5=
EXTT6=
EXTT7=
EXTT8=
EXTT9=
EXTT10=
EXTT11=
EXTT12=
EXTT13=
EXTT14=
EXTT15=
PLAYORDER=
